<mxfile host="app.diagrams.net" modified="2021-01-25T08:26:45.226Z" agent="5.0 (Windows NT 10.0; Win64; x64) AppleWebKit/537.36 (KHTML, like Gecko) Chrome/88.0.4324.104 Safari/537.36" etag="G-IAUzanLPQCThe7VEoj" version="14.2.7" type="github">
  <diagram id="C5RBs43oDa-KdzZeNtuy" name="Page-1">
    <mxGraphModel dx="953" dy="487" grid="1" gridSize="10" guides="1" tooltips="1" connect="1" arrows="1" fold="1" page="1" pageScale="1" pageWidth="827" pageHeight="1169" math="0" shadow="0">
      <root>
        <mxCell id="WIyWlLk6GJQsqaUBKTNV-0" />
        <mxCell id="WIyWlLk6GJQsqaUBKTNV-1" parent="WIyWlLk6GJQsqaUBKTNV-0" />
        <mxCell id="tyynJ6ey_h4lhjKs1Hqb-4" value="" style="edgeStyle=orthogonalEdgeStyle;rounded=0;orthogonalLoop=1;jettySize=auto;html=1;" edge="1" parent="WIyWlLk6GJQsqaUBKTNV-1" source="tyynJ6ey_h4lhjKs1Hqb-0" target="tyynJ6ey_h4lhjKs1Hqb-2">
          <mxGeometry relative="1" as="geometry" />
        </mxCell>
        <mxCell id="tyynJ6ey_h4lhjKs1Hqb-0" value="N1：pop1" style="rounded=0;whiteSpace=wrap;html=1;" vertex="1" parent="WIyWlLk6GJQsqaUBKTNV-1">
          <mxGeometry x="60" y="120" width="120" height="60" as="geometry" />
        </mxCell>
        <mxCell id="tyynJ6ey_h4lhjKs1Hqb-5" value="" style="edgeStyle=orthogonalEdgeStyle;rounded=0;orthogonalLoop=1;jettySize=auto;html=1;" edge="1" parent="WIyWlLk6GJQsqaUBKTNV-1" source="tyynJ6ey_h4lhjKs1Hqb-1" target="tyynJ6ey_h4lhjKs1Hqb-3">
          <mxGeometry relative="1" as="geometry" />
        </mxCell>
        <mxCell id="tyynJ6ey_h4lhjKs1Hqb-1" value="N2：pop2" style="rounded=0;whiteSpace=wrap;html=1;" vertex="1" parent="WIyWlLk6GJQsqaUBKTNV-1">
          <mxGeometry x="290" y="120" width="120" height="60" as="geometry" />
        </mxCell>
        <mxCell id="tyynJ6ey_h4lhjKs1Hqb-10" value="" style="edgeStyle=orthogonalEdgeStyle;rounded=0;orthogonalLoop=1;jettySize=auto;html=1;" edge="1" parent="WIyWlLk6GJQsqaUBKTNV-1" source="tyynJ6ey_h4lhjKs1Hqb-2" target="tyynJ6ey_h4lhjKs1Hqb-8">
          <mxGeometry relative="1" as="geometry" />
        </mxCell>
        <mxCell id="tyynJ6ey_h4lhjKs1Hqb-26" style="edgeStyle=orthogonalEdgeStyle;rounded=0;orthogonalLoop=1;jettySize=auto;html=1;entryX=0;entryY=0.5;entryDx=0;entryDy=0;" edge="1" parent="WIyWlLk6GJQsqaUBKTNV-1" source="tyynJ6ey_h4lhjKs1Hqb-2" target="tyynJ6ey_h4lhjKs1Hqb-22">
          <mxGeometry relative="1" as="geometry">
            <Array as="points">
              <mxPoint x="40" y="250" />
              <mxPoint x="40" y="670" />
            </Array>
          </mxGeometry>
        </mxCell>
        <mxCell id="tyynJ6ey_h4lhjKs1Hqb-2" value="N1_1" style="rounded=0;whiteSpace=wrap;html=1;" vertex="1" parent="WIyWlLk6GJQsqaUBKTNV-1">
          <mxGeometry x="60" y="220" width="120" height="60" as="geometry" />
        </mxCell>
        <mxCell id="tyynJ6ey_h4lhjKs1Hqb-11" value="" style="edgeStyle=orthogonalEdgeStyle;rounded=0;orthogonalLoop=1;jettySize=auto;html=1;" edge="1" parent="WIyWlLk6GJQsqaUBKTNV-1" source="tyynJ6ey_h4lhjKs1Hqb-3" target="tyynJ6ey_h4lhjKs1Hqb-9">
          <mxGeometry relative="1" as="geometry" />
        </mxCell>
        <mxCell id="tyynJ6ey_h4lhjKs1Hqb-29" style="edgeStyle=orthogonalEdgeStyle;rounded=0;orthogonalLoop=1;jettySize=auto;html=1;entryX=1;entryY=0.5;entryDx=0;entryDy=0;" edge="1" parent="WIyWlLk6GJQsqaUBKTNV-1" source="tyynJ6ey_h4lhjKs1Hqb-3" target="tyynJ6ey_h4lhjKs1Hqb-23">
          <mxGeometry relative="1" as="geometry">
            <Array as="points">
              <mxPoint x="445" y="250" />
              <mxPoint x="445" y="670" />
            </Array>
          </mxGeometry>
        </mxCell>
        <mxCell id="tyynJ6ey_h4lhjKs1Hqb-3" value="N2_1" style="rounded=0;whiteSpace=wrap;html=1;" vertex="1" parent="WIyWlLk6GJQsqaUBKTNV-1">
          <mxGeometry x="290" y="220" width="120" height="60" as="geometry" />
        </mxCell>
        <mxCell id="tyynJ6ey_h4lhjKs1Hqb-6" value="全体注射疫苗" style="text;html=1;strokeColor=none;fillColor=none;align=left;verticalAlign=middle;whiteSpace=wrap;rounded=0;" vertex="1" parent="WIyWlLk6GJQsqaUBKTNV-1">
          <mxGeometry x="200" y="190" width="80" height="20" as="geometry" />
        </mxCell>
        <mxCell id="tyynJ6ey_h4lhjKs1Hqb-14" style="rounded=0;orthogonalLoop=1;jettySize=auto;html=1;entryX=0.5;entryY=0;entryDx=0;entryDy=0;" edge="1" parent="WIyWlLk6GJQsqaUBKTNV-1" source="tyynJ6ey_h4lhjKs1Hqb-8" target="tyynJ6ey_h4lhjKs1Hqb-13">
          <mxGeometry relative="1" as="geometry" />
        </mxCell>
        <mxCell id="tyynJ6ey_h4lhjKs1Hqb-8" value="N1_2" style="rounded=0;whiteSpace=wrap;html=1;align=center;" vertex="1" parent="WIyWlLk6GJQsqaUBKTNV-1">
          <mxGeometry x="60" y="320" width="120" height="60" as="geometry" />
        </mxCell>
        <mxCell id="tyynJ6ey_h4lhjKs1Hqb-15" style="edgeStyle=none;rounded=0;orthogonalLoop=1;jettySize=auto;html=1;exitX=0.5;exitY=1;exitDx=0;exitDy=0;entryX=0.5;entryY=0;entryDx=0;entryDy=0;" edge="1" parent="WIyWlLk6GJQsqaUBKTNV-1" source="tyynJ6ey_h4lhjKs1Hqb-9" target="tyynJ6ey_h4lhjKs1Hqb-13">
          <mxGeometry relative="1" as="geometry" />
        </mxCell>
        <mxCell id="tyynJ6ey_h4lhjKs1Hqb-9" value="N2_2" style="rounded=0;whiteSpace=wrap;html=1;align=center;" vertex="1" parent="WIyWlLk6GJQsqaUBKTNV-1">
          <mxGeometry x="290" y="320" width="120" height="60" as="geometry" />
        </mxCell>
        <mxCell id="tyynJ6ey_h4lhjKs1Hqb-12" value="调整交叉率、变异率；&lt;br&gt;进化；" style="text;html=1;strokeColor=none;fillColor=none;align=left;verticalAlign=middle;whiteSpace=wrap;rounded=0;" vertex="1" parent="WIyWlLk6GJQsqaUBKTNV-1">
          <mxGeometry x="180" y="290" width="130" height="20" as="geometry" />
        </mxCell>
        <mxCell id="tyynJ6ey_h4lhjKs1Hqb-19" style="edgeStyle=none;rounded=0;orthogonalLoop=1;jettySize=auto;html=1;entryX=0.5;entryY=0;entryDx=0;entryDy=0;" edge="1" parent="WIyWlLk6GJQsqaUBKTNV-1" source="tyynJ6ey_h4lhjKs1Hqb-13" target="tyynJ6ey_h4lhjKs1Hqb-17">
          <mxGeometry relative="1" as="geometry" />
        </mxCell>
        <mxCell id="tyynJ6ey_h4lhjKs1Hqb-20" style="edgeStyle=none;rounded=0;orthogonalLoop=1;jettySize=auto;html=1;entryX=0.5;entryY=0;entryDx=0;entryDy=0;" edge="1" parent="WIyWlLk6GJQsqaUBKTNV-1" source="tyynJ6ey_h4lhjKs1Hqb-13" target="tyynJ6ey_h4lhjKs1Hqb-18">
          <mxGeometry relative="1" as="geometry" />
        </mxCell>
        <mxCell id="tyynJ6ey_h4lhjKs1Hqb-13" value="种群联姻" style="rounded=0;whiteSpace=wrap;html=1;align=center;" vertex="1" parent="WIyWlLk6GJQsqaUBKTNV-1">
          <mxGeometry x="185" y="440" width="120" height="60" as="geometry" />
        </mxCell>
        <mxCell id="tyynJ6ey_h4lhjKs1Hqb-16" value="&lt;span style=&quot;color: rgb(0, 0, 0); font-family: helvetica; font-size: 12px; font-style: normal; font-weight: 400; letter-spacing: normal; text-align: center; text-indent: 0px; text-transform: none; word-spacing: 0px; background-color: rgb(248, 249, 250); display: inline; float: none;&quot;&gt;选出种群最优个体&lt;/span&gt;" style="text;whiteSpace=wrap;html=1;" vertex="1" parent="WIyWlLk6GJQsqaUBKTNV-1">
          <mxGeometry x="190" y="390" width="120" height="30" as="geometry" />
        </mxCell>
        <mxCell id="tyynJ6ey_h4lhjKs1Hqb-24" value="" style="edgeStyle=none;rounded=0;orthogonalLoop=1;jettySize=auto;html=1;" edge="1" parent="WIyWlLk6GJQsqaUBKTNV-1" source="tyynJ6ey_h4lhjKs1Hqb-17" target="tyynJ6ey_h4lhjKs1Hqb-22">
          <mxGeometry relative="1" as="geometry" />
        </mxCell>
        <mxCell id="tyynJ6ey_h4lhjKs1Hqb-17" value="N1_3" style="rounded=0;whiteSpace=wrap;html=1;align=center;" vertex="1" parent="WIyWlLk6GJQsqaUBKTNV-1">
          <mxGeometry x="60" y="550" width="120" height="60" as="geometry" />
        </mxCell>
        <mxCell id="tyynJ6ey_h4lhjKs1Hqb-25" value="" style="edgeStyle=orthogonalEdgeStyle;rounded=0;orthogonalLoop=1;jettySize=auto;html=1;" edge="1" parent="WIyWlLk6GJQsqaUBKTNV-1" source="tyynJ6ey_h4lhjKs1Hqb-18" target="tyynJ6ey_h4lhjKs1Hqb-23">
          <mxGeometry relative="1" as="geometry" />
        </mxCell>
        <mxCell id="tyynJ6ey_h4lhjKs1Hqb-18" value="N2_3" style="rounded=0;whiteSpace=wrap;html=1;align=center;" vertex="1" parent="WIyWlLk6GJQsqaUBKTNV-1">
          <mxGeometry x="305" y="550" width="120" height="60" as="geometry" />
        </mxCell>
        <mxCell id="tyynJ6ey_h4lhjKs1Hqb-21" value="最优个体放回" style="text;html=1;strokeColor=none;fillColor=none;align=center;verticalAlign=middle;whiteSpace=wrap;rounded=0;" vertex="1" parent="WIyWlLk6GJQsqaUBKTNV-1">
          <mxGeometry x="172.5" y="520" width="155" height="20" as="geometry" />
        </mxCell>
        <mxCell id="tyynJ6ey_h4lhjKs1Hqb-22" value="N1_4" style="rounded=0;whiteSpace=wrap;html=1;align=center;" vertex="1" parent="WIyWlLk6GJQsqaUBKTNV-1">
          <mxGeometry x="60" y="640" width="120" height="60" as="geometry" />
        </mxCell>
        <mxCell id="tyynJ6ey_h4lhjKs1Hqb-23" value="N2_4" style="rounded=0;whiteSpace=wrap;html=1;align=center;" vertex="1" parent="WIyWlLk6GJQsqaUBKTNV-1">
          <mxGeometry x="305" y="640" width="120" height="60" as="geometry" />
        </mxCell>
        <mxCell id="tyynJ6ey_h4lhjKs1Hqb-30" value="免疫选择" style="text;html=1;strokeColor=none;fillColor=none;align=center;verticalAlign=middle;whiteSpace=wrap;rounded=0;" vertex="1" parent="WIyWlLk6GJQsqaUBKTNV-1">
          <mxGeometry x="210" y="620" width="70" height="20" as="geometry" />
        </mxCell>
        <mxCell id="tyynJ6ey_h4lhjKs1Hqb-31" value="更新种群" style="text;html=1;strokeColor=none;fillColor=none;align=center;verticalAlign=middle;whiteSpace=wrap;rounded=0;" vertex="1" parent="WIyWlLk6GJQsqaUBKTNV-1">
          <mxGeometry x="215" y="710" width="60" height="20" as="geometry" />
        </mxCell>
        <mxCell id="tyynJ6ey_h4lhjKs1Hqb-33" value="" style="edgeStyle=orthogonalEdgeStyle;rounded=0;orthogonalLoop=1;jettySize=auto;html=1;" edge="1" parent="WIyWlLk6GJQsqaUBKTNV-1" source="tyynJ6ey_h4lhjKs1Hqb-34" target="tyynJ6ey_h4lhjKs1Hqb-45">
          <mxGeometry relative="1" as="geometry">
            <mxPoint x="550" y="220" as="targetPoint" />
          </mxGeometry>
        </mxCell>
        <mxCell id="tyynJ6ey_h4lhjKs1Hqb-34" value="N1：pop1" style="rounded=0;whiteSpace=wrap;html=1;" vertex="1" parent="WIyWlLk6GJQsqaUBKTNV-1">
          <mxGeometry x="490" y="120" width="120" height="60" as="geometry" />
        </mxCell>
        <mxCell id="tyynJ6ey_h4lhjKs1Hqb-35" value="" style="edgeStyle=orthogonalEdgeStyle;rounded=0;orthogonalLoop=1;jettySize=auto;html=1;entryX=0.5;entryY=0;entryDx=0;entryDy=0;" edge="1" parent="WIyWlLk6GJQsqaUBKTNV-1" source="tyynJ6ey_h4lhjKs1Hqb-36" target="tyynJ6ey_h4lhjKs1Hqb-47">
          <mxGeometry relative="1" as="geometry">
            <mxPoint x="780" y="220" as="targetPoint" />
          </mxGeometry>
        </mxCell>
        <mxCell id="tyynJ6ey_h4lhjKs1Hqb-36" value="N2：pop2" style="rounded=0;whiteSpace=wrap;html=1;" vertex="1" parent="WIyWlLk6GJQsqaUBKTNV-1">
          <mxGeometry x="720" y="120" width="120" height="60" as="geometry" />
        </mxCell>
        <mxCell id="tyynJ6ey_h4lhjKs1Hqb-44" style="rounded=0;orthogonalLoop=1;jettySize=auto;html=1;entryX=0.5;entryY=0;entryDx=0;entryDy=0;" edge="1" parent="WIyWlLk6GJQsqaUBKTNV-1" source="tyynJ6ey_h4lhjKs1Hqb-45" target="tyynJ6ey_h4lhjKs1Hqb-51">
          <mxGeometry relative="1" as="geometry" />
        </mxCell>
        <mxCell id="tyynJ6ey_h4lhjKs1Hqb-45" value="N1_2" style="rounded=0;whiteSpace=wrap;html=1;align=center;" vertex="1" parent="WIyWlLk6GJQsqaUBKTNV-1">
          <mxGeometry x="490" y="320" width="120" height="60" as="geometry" />
        </mxCell>
        <mxCell id="tyynJ6ey_h4lhjKs1Hqb-46" style="edgeStyle=none;rounded=0;orthogonalLoop=1;jettySize=auto;html=1;exitX=0.5;exitY=1;exitDx=0;exitDy=0;entryX=0.5;entryY=0;entryDx=0;entryDy=0;" edge="1" parent="WIyWlLk6GJQsqaUBKTNV-1" source="tyynJ6ey_h4lhjKs1Hqb-47" target="tyynJ6ey_h4lhjKs1Hqb-51">
          <mxGeometry relative="1" as="geometry" />
        </mxCell>
        <mxCell id="tyynJ6ey_h4lhjKs1Hqb-47" value="N2_2" style="rounded=0;whiteSpace=wrap;html=1;align=center;" vertex="1" parent="WIyWlLk6GJQsqaUBKTNV-1">
          <mxGeometry x="720" y="320" width="120" height="60" as="geometry" />
        </mxCell>
        <mxCell id="tyynJ6ey_h4lhjKs1Hqb-48" value="调整交叉率、变异率；&lt;br&gt;进化；" style="text;html=1;strokeColor=none;fillColor=none;align=left;verticalAlign=middle;whiteSpace=wrap;rounded=0;" vertex="1" parent="WIyWlLk6GJQsqaUBKTNV-1">
          <mxGeometry x="610" y="290" width="130" height="20" as="geometry" />
        </mxCell>
        <mxCell id="tyynJ6ey_h4lhjKs1Hqb-49" style="edgeStyle=none;rounded=0;orthogonalLoop=1;jettySize=auto;html=1;entryX=0.5;entryY=0;entryDx=0;entryDy=0;" edge="1" parent="WIyWlLk6GJQsqaUBKTNV-1" source="tyynJ6ey_h4lhjKs1Hqb-51" target="tyynJ6ey_h4lhjKs1Hqb-54">
          <mxGeometry relative="1" as="geometry" />
        </mxCell>
        <mxCell id="tyynJ6ey_h4lhjKs1Hqb-50" style="edgeStyle=none;rounded=0;orthogonalLoop=1;jettySize=auto;html=1;entryX=0.5;entryY=0;entryDx=0;entryDy=0;" edge="1" parent="WIyWlLk6GJQsqaUBKTNV-1" source="tyynJ6ey_h4lhjKs1Hqb-51" target="tyynJ6ey_h4lhjKs1Hqb-56">
          <mxGeometry relative="1" as="geometry" />
        </mxCell>
        <mxCell id="tyynJ6ey_h4lhjKs1Hqb-51" value="种群联姻" style="rounded=0;whiteSpace=wrap;html=1;align=center;" vertex="1" parent="WIyWlLk6GJQsqaUBKTNV-1">
          <mxGeometry x="615" y="440" width="120" height="60" as="geometry" />
        </mxCell>
        <mxCell id="tyynJ6ey_h4lhjKs1Hqb-52" value="&lt;span style=&quot;color: rgb(0, 0, 0); font-family: helvetica; font-size: 12px; font-style: normal; font-weight: 400; letter-spacing: normal; text-align: center; text-indent: 0px; text-transform: none; word-spacing: 0px; background-color: rgb(248, 249, 250); display: inline; float: none;&quot;&gt;选出种群最优个体&lt;/span&gt;" style="text;whiteSpace=wrap;html=1;" vertex="1" parent="WIyWlLk6GJQsqaUBKTNV-1">
          <mxGeometry x="620" y="390" width="120" height="30" as="geometry" />
        </mxCell>
        <mxCell id="tyynJ6ey_h4lhjKs1Hqb-53" value="" style="edgeStyle=none;rounded=0;orthogonalLoop=1;jettySize=auto;html=1;" edge="1" parent="WIyWlLk6GJQsqaUBKTNV-1" source="tyynJ6ey_h4lhjKs1Hqb-54" target="tyynJ6ey_h4lhjKs1Hqb-58">
          <mxGeometry relative="1" as="geometry" />
        </mxCell>
        <mxCell id="tyynJ6ey_h4lhjKs1Hqb-54" value="N1_3" style="rounded=0;whiteSpace=wrap;html=1;align=center;" vertex="1" parent="WIyWlLk6GJQsqaUBKTNV-1">
          <mxGeometry x="490" y="550" width="120" height="60" as="geometry" />
        </mxCell>
        <mxCell id="tyynJ6ey_h4lhjKs1Hqb-55" value="" style="edgeStyle=orthogonalEdgeStyle;rounded=0;orthogonalLoop=1;jettySize=auto;html=1;" edge="1" parent="WIyWlLk6GJQsqaUBKTNV-1" source="tyynJ6ey_h4lhjKs1Hqb-56" target="tyynJ6ey_h4lhjKs1Hqb-59">
          <mxGeometry relative="1" as="geometry" />
        </mxCell>
        <mxCell id="tyynJ6ey_h4lhjKs1Hqb-56" value="N2_3" style="rounded=0;whiteSpace=wrap;html=1;align=center;" vertex="1" parent="WIyWlLk6GJQsqaUBKTNV-1">
          <mxGeometry x="735" y="550" width="120" height="60" as="geometry" />
        </mxCell>
        <mxCell id="tyynJ6ey_h4lhjKs1Hqb-57" value="最优个体放回" style="text;html=1;strokeColor=none;fillColor=none;align=center;verticalAlign=middle;whiteSpace=wrap;rounded=0;" vertex="1" parent="WIyWlLk6GJQsqaUBKTNV-1">
          <mxGeometry x="602.5" y="520" width="155" height="20" as="geometry" />
        </mxCell>
        <mxCell id="tyynJ6ey_h4lhjKs1Hqb-58" value="N1_4" style="rounded=0;whiteSpace=wrap;html=1;align=center;" vertex="1" parent="WIyWlLk6GJQsqaUBKTNV-1">
          <mxGeometry x="490" y="640" width="120" height="60" as="geometry" />
        </mxCell>
        <mxCell id="tyynJ6ey_h4lhjKs1Hqb-59" value="N2_4" style="rounded=0;whiteSpace=wrap;html=1;align=center;" vertex="1" parent="WIyWlLk6GJQsqaUBKTNV-1">
          <mxGeometry x="735" y="640" width="120" height="60" as="geometry" />
        </mxCell>
        <mxCell id="tyynJ6ey_h4lhjKs1Hqb-60" value="抽取疫苗&lt;br&gt;接种疫苗&lt;br&gt;免疫选择" style="text;html=1;strokeColor=none;fillColor=none;align=center;verticalAlign=middle;whiteSpace=wrap;rounded=0;" vertex="1" parent="WIyWlLk6GJQsqaUBKTNV-1">
          <mxGeometry x="640" y="620" width="70" height="20" as="geometry" />
        </mxCell>
        <mxCell id="tyynJ6ey_h4lhjKs1Hqb-61" value="更新种群" style="text;html=1;strokeColor=none;fillColor=none;align=center;verticalAlign=middle;whiteSpace=wrap;rounded=0;" vertex="1" parent="WIyWlLk6GJQsqaUBKTNV-1">
          <mxGeometry x="645" y="710" width="60" height="20" as="geometry" />
        </mxCell>
      </root>
    </mxGraphModel>
  </diagram>
</mxfile>
